<svg xmlns="http://www.w3.org/2000/svg" viewBox="0 0 50 50">
<path d="M 45.9375 2.6875 C 45.824219 2.714844 45.695313 2.777344 45.59375 2.84375 L 35.96875 9.375 C 37.445313 10.605469 38.84375 11.785156 39.3125 12.25 C 39.660156 12.59375 39.953125 12.984375 40.1875 13.4375 L 46.96875 4.25 C 47.257813 3.859375 47.214844 3.320313 46.875 2.96875 C 46.621094 2.707031 46.277344 2.605469 45.9375 2.6875 Z M 33.3125 3.40625 C 33.109375 3.414063 28.359375 3.605469 26.0625 7.21875 C 26.699219 7.28125 27.351563 7.292969 28.03125 7.25 C 28.609375 7.214844 29.058594 7.636719 29.09375 8.1875 C 29.128906 8.738281 28.707031 9.214844 28.15625 9.25 C 27.84375 9.269531 27.519531 9.28125 27.21875 9.28125 C 23.175781 9.28125 19.902344 7.609375 17.75 6.09375 C 17.40625 5.949219 17.199219 5.847656 17.1875 5.84375 C 16.867188 5.6875 16.484375 5.710938 16.1875 5.90625 C 15.890625 6.101563 15.730469 6.457031 15.75 6.8125 C 15.800781 7.652344 16.089844 8.859375 16.75 9.875 C 16.179688 9.921875 15.671875 9.980469 15.21875 10.03125 C 13.765625 10.195313 12.882813 10.269531 11.28125 9.78125 C 10.917969 9.667969 10.542969 9.785156 10.28125 10.0625 C 10.019531 10.339844 9.929688 10.738281 10.0625 11.09375 C 10.355469 11.875 10.917969 12.691406 11.65625 13.375 C 10.792969 13.515625 10.179688 13.699219 9.65625 13.84375 C 8.894531 14.054688 8.402344 14.171875 7.5 14.125 C 7.121094 14.109375 6.78125 14.300781 6.59375 14.625 C 6.40625 14.945313 6.394531 15.339844 6.59375 15.65625 C 7.042969 16.367188 7.542969 16.871094 8.0625 17.21875 C 7.507813 17.472656 7.105469 17.722656 6.75 17.9375 C 6.019531 18.375 5.90625 18.421875 5.5625 18.3125 C 5.171875 18.1875 4.726563 18.304688 4.46875 18.625 C 4.210938 18.945313 4.171875 19.390625 4.375 19.75 C 4.710938 20.34375 5.246094 20.804688 5.84375 21.15625 C 5.214844 21.40625 4.746094 21.664063 4.34375 21.875 C 3.890625 22.113281 3.546875 22.269531 3.3125 22.28125 C 2.925781 22.300781 2.585938 22.550781 2.4375 22.90625 C 2.289063 23.261719 2.367188 23.683594 2.625 23.96875 C 3.042969 24.433594 3.503906 24.722656 3.9375 24.9375 C 3.039063 25.328125 2.105469 25.644531 1.65625 25.78125 C 1.242188 25.90625 0.949219 26.285156 0.9375 26.71875 C 0.933594 26.886719 0.726563 43.527344 21.59375 46 C 21.632813 46.003906 21.648438 46 21.6875 46 C 22.007813 46 22.34375 45.859375 22.53125 45.59375 C 24.726563 42.507813 24.046875 39.808594 23.46875 37.4375 C 22.804688 34.707031 22.234375 32.304688 25.71875 29.09375 C 28.238281 33.347656 32.941406 33.765625 35.8125 33.25 C 36.386719 34.339844 37.710938 36.167969 40.34375 37.03125 C 43.5625 38.089844 46.382813 36.472656 46.5 36.40625 C 46.742188 36.265625 46.910156 36.054688 46.96875 35.78125 C 47.621094 32.800781 47.808594 31.738281 47.84375 31.3125 C 48.207031 30.078125 48.164063 27.609375 45.6875 26.0625 C 41.132813 21.644531 39.476563 18.132813 39.1875 17.46875 C 39.109375 16.636719 38.828125 14.566406 37.90625 13.65625 C 37.238281 12.996094 34.148438 10.429688 32.90625 9.40625 L 34.3125 4.6875 C 34.402344 4.378906 34.320313 4.035156 34.125 3.78125 C 33.929688 3.527344 33.664063 3.394531 33.3125 3.40625 Z M 34.5 19 C 35.328125 19 36 19.671875 36 20.5 C 36 21.328125 35.328125 22 34.5 22 C 33.671875 22 33 21.328125 33 20.5 C 33 19.671875 33.671875 19 34.5 19 Z">
</path>
</svg>