<?xml version="1.0" encoding="UTF-8" standalone="no"?>
<svg
   xmlns:dc="http://purl.org/dc/elements/1.1/"
   xmlns:cc="http://creativecommons.org/ns#"
   xmlns:rdf="http://www.w3.org/1999/02/22-rdf-syntax-ns#"
   xmlns:svg="http://www.w3.org/2000/svg"
   xmlns="http://www.w3.org/2000/svg"
   viewBox="0 0 567.54669 242.67999"
   height="242.67999"
   width="567.54669"
   xml:space="preserve"
   id="svg2"
   version="1.1"><metadata
     id="metadata8"><rdf:RDF><cc:Work
         rdf:about=""><dc:format>image/svg+xml</dc:format><dc:type
           rdf:resource="http://purl.org/dc/dcmitype/StillImage" /></cc:Work></rdf:RDF></metadata><defs
     id="defs6" /><g
     transform="matrix(1.3333333,0,0,-1.3333333,0,242.68)"
     id="g10"><g
       transform="scale(0.1)"
       id="g12"><path
         id="path14"
         style="fill:#231f20;fill-opacity:1;fill-rule:nonzero;stroke:none"
         d="m 2589.55,1723.29 -101.46,-327.97 c -18.27,-58.75 -38.44,-127.64 -54.69,-199.26 -18.26,66.42 -36.1,124.41 -58.36,196.29 l -104.94,330.94 h -165.31 l 236.81,-712 h 187.36 l 244.17,712 h -183.58" /><path
         id="path16"
         style="fill:#231f20;fill-opacity:1;fill-rule:nonzero;stroke:none"
         d="m 3712.52,1723.29 h -175.57 l -66.5,-311.34 c -10.51,-57.04 -21.11,-119.07 -32.23,-187.69 -8.12,51.6 -17.77,107.87 -30.93,180.19 l -59.48,318.84 h -184.18 l -65.25,-312.84 c -0.06,-0.11 -20.7,-113.06 -20.7,-113.06 -5.24,-29.4 -10.26,-57.11 -15.36,-84.01 -9.45,51.62 -22.05,117.48 -37.14,193.89 -0.04,0.12 -65.96,316.02 -65.96,316.02 h -163.63 l 172.95,-712 h 181.58 l 69.18,308.48 c 13.49,68.91 22.38,129.68 31.23,193.12 10.39,-69.43 20.27,-125.97 33.3,-190.94 l 63.28,-310.66 h 175.92 l 189.49,712" /><path
         id="path18"
         style="fill:#231f20;fill-opacity:1;fill-rule:nonzero;stroke:none"
         d="m 3788.5,1723.29 1.7,-712 h 464.78 l -0.6,145.28 h -300.26 l -0.6,147.22 h 268.1 l 0.24,145.2 h -268.95 l -0.23,129.1 h 284.9 l 0.35,145.2 H 3788.5" /><path
         id="path20"
         style="fill:#231f20;fill-opacity:1;fill-rule:nonzero;stroke:none"
         d="M 1796.72,966.605 966.523,1796.66 c -31.132,31.25 -81.757,31.25 -112.968,0 L 611.016,1554.2 726.602,1438.6 c 196.289,67.95 422.658,24.26 579.468,-132.56 218.66,-218.73 218.66,-573.231 0,-791.962 -218.73,-218.797 -573.316,-218.797 -792.047,0 C 320.703,707.441 298.574,1006.8 447.109,1224.81 L 364.395,1307.58 23.3398,966.605 c -31.11324,-31.289 -31.11324,-81.835 0,-113.109 L 853.555,23.4414 c 31.211,-31.24999 81.836,-31.24999 113.047,0 L 1796.72,853.496 c 31.11,31.274 31.11,81.82 0,113.109" /><path
         id="path22"
         style="fill:#0fafa9;fill-opacity:1;fill-rule:nonzero;stroke:none"
         d="m 1306.07,1306.04 c -156.81,156.82 -383.179,200.51 -579.468,132.56 l 129.16,-129.24 c 120.508,16.39 246.948,-21.37 339.568,-114 157.58,-157.62 157.58,-413.008 0,-570.571 -157.6,-157.598 -413.025,-157.598 -570.584,0 C 492.813,756.68 471.816,957.016 560.684,1111.25 L 910.02,761.941 V 1008.3 L 194.238,1724.13 V 1477.58 L 447.109,1224.81 C 298.574,1006.8 320.703,707.441 514.023,514.078 c 218.731,-218.797 573.317,-218.797 792.047,0 218.66,218.75 218.66,573.232 0,791.962" /><path
         id="path24"
         style="fill:#231f20;fill-opacity:1;fill-rule:nonzero;stroke:none"
         d="m 2405.06,591.602 -20.33,70.668 c -4.94,17.73 -9.2,37.242 -13.11,53.871 h -0.84 c -3.75,-16.821 -7.69,-36.672 -12.24,-53.719 l -19.93,-70.82 z M 2330.92,552.031 2308.91,471 h -48.7 l 82.76,286.66 h 60 L 2486.76,471 h -50.59 l -23.34,81.031 h -81.91" /><path
         id="path26"
         style="fill:#231f20;fill-opacity:1;fill-rule:nonzero;stroke:none"
         d="m 2689.14,533.031 c 0,-24.609 0.68,-45.179 1.52,-62.031 h -41.15 l -2.26,31.309 h -1.12 c -7.85,-14.528 -26.25,-36 -59.65,-36 -33.96,0 -64.86,22.679 -64.86,90.332 v 121.41 h 47.15 v -112.66 c 0,-34.371 9.77,-56.422 34.73,-56.422 18.84,0 31.09,14.59 35.95,27.972 1.59,4.489 2.56,10.129 2.56,16.188 v 124.922 h 47.13 v -145.02" /><path
         id="path28"
         style="fill:#231f20;fill-opacity:1;fill-rule:nonzero;stroke:none"
         d="m 2799.75,731.27 v -53.219 h 44.82 v -38.992 h -44.82 V 547.68 c 0,-25.328 6.07,-38.219 24.1,-38.219 8.53,0 12.95,0.66 18.28,2.277 l 0.96,-39.84 c -7.07,-2.929 -19.44,-5.367 -34.28,-5.367 -17.31,0 -31.72,6.559 -40.47,17.071 -10.12,11.886 -14.75,30.949 -14.75,58.078 v 97.379 h -26.58 v 38.992 h 26.58 v 38.57 l 46.16,14.649" /><path
         id="path30"
         style="fill:#231f20;fill-opacity:1;fill-rule:nonzero;stroke:none"
         d="m 2966.07,504.379 c 27,0 45.77,28.941 45.77,70.621 0,32.539 -12.95,69.711 -45.45,69.711 -33.07,0 -46.62,-35.883 -46.62,-70.391 0,-39.851 17.89,-69.941 45.93,-69.941 z m -1.13,-38.07 c -52.56,0 -93.22,40.332 -93.22,106.703 0,67.91 40.25,109.726 96.39,109.726 55.43,0 92.52,-43.398 92.52,-106.179 0,-76.129 -48.05,-110.25 -95.32,-110.25 h -0.37" /><path
         id="path32"
         style="fill:#231f20;fill-opacity:1;fill-rule:nonzero;stroke:none"
         d="m 3105.29,616.488 c 0,23.922 -0.68,43.653 -1.54,61.563 h 40.23 l 2.15,-30.391 h 1.12 c 8.98,16.051 25.93,35.078 57.34,35.078 24.69,0 43.67,-15.238 51.68,-38.187 h 0.76 c 6.52,11.328 14.36,20 22.77,26.039 10.61,7.91 22.35,12.148 37.88,12.148 30.78,0 62.14,-23.437 62.14,-89.847 V 471 h -45.93 v 114.531 c 0,34.508 -10.75,54.778 -33.21,54.778 -16.11,0 -27.93,-12.649 -32.75,-27.571 -1.5,-5 -2.4,-11.636 -2.4,-17.457 V 471 h -45.92 v 119.719 c 0,29.179 -10.51,49.59 -32.15,49.59 -17.66,0 -29.45,-15.411 -33.91,-29.59 -1.66,-5.27 -2.32,-11.457 -2.32,-17.321 V 471 h -45.94 v 145.488" /><path
         id="path34"
         style="fill:#231f20;fill-opacity:1;fill-rule:nonzero;stroke:none"
         d="m 3518.13,504.379 c 27.01,0 45.76,28.941 45.76,70.621 0,32.539 -12.95,69.711 -45.45,69.711 -33.07,0 -46.62,-35.883 -46.62,-70.391 0,-39.851 17.89,-69.941 45.93,-69.941 z m -1.14,-38.07 c -52.56,0 -93.22,40.332 -93.22,106.703 0,67.91 40.25,109.726 96.39,109.726 55.45,0 92.52,-43.398 92.52,-106.179 0,-76.129 -48.05,-110.25 -95.32,-110.25 h -0.37" /><path
         id="path36"
         style="fill:#231f20;fill-opacity:1;fill-rule:nonzero;stroke:none"
         d="m 3711.21,731.27 v -53.219 h 44.83 v -38.992 h -44.83 V 547.68 c 0,-25.328 6.08,-38.219 24.08,-38.219 8.56,0 12.97,0.66 18.3,2.277 l 0.96,-39.84 c -7.07,-2.929 -19.43,-5.367 -34.28,-5.367 -17.3,0 -31.72,6.559 -40.48,17.071 -10.12,11.886 -14.73,30.949 -14.73,58.078 v 97.379 h -26.58 v 38.992 h 26.58 v 38.57 l 46.15,14.649" /><path
         id="path38"
         style="fill:#231f20;fill-opacity:1;fill-rule:nonzero;stroke:none"
         d="m 3797.38,471 v 207.051 h 47.13 V 471 Z m 23.05,239.059 c -16.43,0 -27.29,13.281 -27.23,29.882 -0.06,16.739 11.16,29.77 27.8,29.77 16.79,0 27.52,-12.891 27.69,-29.77 0.04,-16.601 -10.76,-29.882 -27.89,-29.882 h -0.37" /><path
         id="path40"
         style="fill:#231f20;fill-opacity:1;fill-rule:nonzero;stroke:none"
         d="m 3930.8,678.051 30.18,-105.121 c 5.31,-18.239 9.23,-34.918 12.71,-51.758 h 1.13 c 3.5,17.129 7.64,33.398 12.66,51.758 l 29.51,105.121 h 49.51 L 3995.39,471 H 3949 l -69.16,207.051 h 50.96" /><path
         id="path42"
         style="fill:#231f20;fill-opacity:1;fill-rule:nonzero;stroke:none"
         d="m 4212.25,596.922 c 0.19,19.18 -7.31,50.469 -38.87,50.469 -28.97,0 -41.04,-29.262 -43.13,-50.469 z m -81.94,-36.492 c 1.27,-37.539 27.39,-53.942 57.54,-53.942 21.66,0 37.17,3.793 51.41,9.614 l 6.97,-36.043 c -15.96,-7.52 -38.07,-13.137 -65.1,-13.137 -60.49,0 -95.9,41.519 -95.9,104.976 0,57.161 31.2,111.231 91.1,111.231 60.55,0 80.25,-55.348 80.25,-100.707 0,-9.742 -0.76,-17.531 -1.66,-22.383 l -124.61,0.391" /></g></g></svg>